<svg width="800" height="800" viewBox="0 0 73 73" xmlns="http://www.w3.org/2000/svg">
    <g fill="none">
        <rect x="-1" y="-1" width="71" height="71" rx="14" transform="translate(2 2)" fill="#FFF" stroke="#173D60" stroke-width="2"/>
        <path d="M60 20.942v.162a4.205 4.205 0 0 1-4.214 4.051h-4.7c-.486 0-.81.324-.81.81v29.983H30.26l11.345-5.186 4.457-4.457a.86.86 0 0 0 .162-.972l-.162-.405a.89.89 0 0 0-.81-.486l-6.32.405-16.209 7.373-3.727 1.701c-.73.406-1.135 1.216-.892 2.026h-.891A4.205 4.205 0 0 1 13 51.896v-.162a4.03 4.03 0 0 1 4.052-3.89h4.862c.486 0 .81-.323.81-.81V17.052h33.224A4.03 4.03 0 0 1 60 20.942" fill="#285680"/>
        <path d="M60 21.104v34.844A4.01 4.01 0 0 1 55.948 60h-4.862c-.486 0-.81-.324-.81-.81V25.966c0-.487.324-.81.81-.81h4.7A4.205 4.205 0 0 0 60 21.103M22.724 13.81v33.224c0 .487-.324.81-.81.81h-4.862A4.03 4.03 0 0 0 13 51.735V17.052c0-1.054.405-2.107 1.216-2.836.81-.73 1.782-1.216 2.836-1.216h4.862c.486 0 .81.324.81.81" fill="#4482C3"/>
        <path d="M45.414 29.207h-2.026c-.324-.81-.73-1.62-1.297-2.269l1.054-1.783c.243-.405.08-.891-.324-1.134L39.984 22.4c-.405-.243-.89-.081-1.134.324l-1.053 1.783a7.4 7.4 0 0 0-2.675 0l-.972-1.783c-.243-.405-.73-.486-1.134-.324l-2.837 1.62c-.405.244-.486.73-.324 1.135l1.054 1.783c-.568.648-.973 1.458-1.297 2.269h-2.026c-.405 0-.81.405-.81.81v3.242c0 .486.324.81.81.81h2.026c.324.81.73 1.62 1.297 2.269l-.973 1.783c-.243.405-.08.891.324 1.134l2.837 1.62c.405.244.89.082 1.134-.323l1.053-1.783a7.4 7.4 0 0 0 2.675 0l1.053 1.783c.243.405.73.486 1.134.324l2.837-1.62c.405-.244.486-.73.324-1.135l-1.054-1.783c.568-.648 1.054-1.459 1.297-2.27h2.026c.405 0 .81-.404.81-.81v-3.24c-.162-.406-.486-.811-.972-.811" fill="#F29C1F"/>
        <path d="M38.931 31.638a2.431 2.431 0 1 1-4.862 0 2.431 2.431 0 0 1 4.862 0" fill="#A56A43"/>
        <path d="M16.241 40.552c-.486 0-.81-.325-.81-.81V21.913c0-.486.324-.81.81-.81s.81.324.81.81V39.74c0 .486-.324.81-.81.81m0-21.067c-.486 0-.81-.324-.81-.81v-1.622c0-.487.324-.81.81-.81s.81.323.81.81v1.62c0 .487-.324.81-.81.81" fill="#B0D3F0"/>
        <path d="m48.169 45.333-1.945.81c.162-.243.162-.567.081-.81v-.081l-.162-.324a.63.63 0 0 0-.324-.324l1.783-.73c.243-.08.567-.08.81.081.243.162.324.487.324.73-.162.324-.324.567-.567.648" fill="#2C2F38"/>
        <path fill="#F0C419" d="M41.605 50.762 30.26 55.948l-4.862 2.188-2.674-5.834 16.207-7.455z"/>
        <path d="M34.393 51.33c-.405 0-.73-.244-.81-.649s.08-.73.486-.891l5.915-2.675c.406-.162.892 0 1.054.406.162.405 0 .891-.405 1.053l-5.916 2.674c-.162.081-.243.081-.324.081M24.02 56.03c-.405 0-.729-.244-.81-.649-.08-.405.081-.73.486-.891l6.645-2.999c.406-.162.892 0 1.054.405.162.406 0 .892-.405 1.054l-6.645 2.998c-.081.081-.162.081-.324.081" fill="#000"/>
        <path d="m25.398 58.136-3.727 1.702c-.81.405-1.783 0-2.107-.81l-1.378-2.918c0-.08-.08-.08-.08-.162-.244-.81.08-1.62.89-2.026l3.728-1.701z" fill="#FB7B76"/>
        <path d="M46.143 46.143c0 .081-.081.081-.081.162l-4.457 4.457-2.674-5.915 6.32-.405c.163 0 .325 0 .487.08.162.082.243.244.324.325l.162.324v.08c.162.325.081.649-.081.892" fill="#FDD7AD"/>
    </g>
</svg>