<svg xmlns="http://www.w3.org/2000/svg" viewBox="0 0 512 512" xml:space="preserve">
    <path style="fill:#29abe2" d="M501.801 404.137c0-61.929-48.753-112.466-109.972-115.337 40.268 22.679 67.47 65.828 67.47 115.337zm-159.51-133.962a62 62 0 0 0 3.11 2.953 131.4 131.4 0 0 1 45.813 15.329c31.802-2.493 56.837-29.069 56.837-61.511 0-33.547-26.77-60.824-60.111-61.681a70.36 70.36 0 0 1 9.781 35.873c0 33.804-23.726 62.049-55.43 69.037m-16.776-53.713a76 76 0 0 0 5.537-16.969 61.2 61.2 0 0 0-5.537 16.969M52.701 404.137c0-49.509 27.201-92.658 67.47-115.337-61.219 2.871-109.972 53.408-109.972 115.337zm117.008-133.962c-31.703-6.987-55.43-35.233-55.43-69.036a70.37 70.37 0 0 1 9.781-35.873c-33.341.857-60.111 28.132-60.111 61.681 0 32.442 25.035 59.019 56.837 61.511a131.4 131.4 0 0 1 45.813-15.329 63 63 0 0 0 3.11-2.954m11.239-70.683a76 76 0 0 0 5.537 16.969 61.3 61.3 0 0 0-5.537-16.969"/>
    <path style="fill:#bdccd4" d="M186.485 216.462a76 76 0 0 1-5.537-16.969 77 77 0 0 1-1.489-15.09c0-20.243 7.873-38.638 20.705-52.326a71 71 0 0 0-15.175-1.65c-25.955 0-48.631 13.993-60.93 34.838a70.36 70.36 0 0 0-9.781 35.873c0 33.803 23.726 62.05 55.43 69.036a71 71 0 0 0 15.281 1.675c16.811 0 32.243-5.878 44.378-15.675-19-7.053-34.437-21.436-42.882-39.712"/>
    <path style="fill:#bdccd4" d="M120.785 288.457q-.308.17-.615.344C79.902 311.48 52.7 354.628 52.7 404.137h60.105c0-43.753 19.637-82.905 50.563-109.169 10.735-9.116 22.821-16.691 35.931-22.351a134 134 0 0 0-14.309-.769c-6.242 0-12.38.443-18.391 1.279a131.4 131.4 0 0 0-45.814 15.33m271.044.344-.615-.344a131.4 131.4 0 0 0-45.813-15.329 133 133 0 0 0-18.391-1.279c-4.835 0-9.609.263-14.309.769 13.11 5.66 25.195 13.234 35.931 22.351 30.926 26.264 50.563 65.417 50.563 109.169H459.3c-.001-49.509-27.203-92.657-67.471-115.337"/>
    <path style="fill:#bdccd4" d="M397.721 201.139a70.37 70.37 0 0 0-9.781-35.873c-12.299-20.845-34.975-34.838-60.93-34.838a71 71 0 0 0-15.175 1.65c12.833 13.688 20.705 32.083 20.705 52.326 0 5.166-.513 10.211-1.489 15.09a76 76 0 0 1-5.537 16.969c-8.445 18.276-23.88 32.659-42.882 39.713 12.135 9.797 27.566 15.675 44.378 15.675 5.25 0 10.358-.59 15.281-1.675 31.704-6.989 55.43-35.234 55.43-69.037"/>
    <path style="fill:#29abe2" d="M317.278 404.137H112.805h286.39zm-4.577-131.519c-17.389-7.507-36.557-11.674-56.701-11.674s-39.312 4.167-56.701 11.674c-50.879 21.965-86.493 72.58-86.493 131.52h286.39c-.001-58.941-35.616-109.555-86.495-131.52m19.839-88.215c0-20.243-7.873-38.638-20.705-52.326-13.965-14.895-33.806-24.215-55.836-24.215s-41.871 9.319-55.836 24.215c-12.833 13.688-20.705 32.083-20.705 52.326 0 32.905 20.768 60.954 49.908 71.772 8.295 3.079 17.266 4.769 26.633 4.769s18.337-1.689 26.633-4.769c29.141-10.819 49.908-38.867 49.908-71.772"/>
    <path d="M427.935 285.555c18.327-13.048 30.316-34.448 30.316-58.61 0-37.168-28.34-67.84-64.545-71.544-14.6-21.224-39.046-35.174-66.696-35.174-4.007 0-7.941.311-11.792.879-15.516-14.524-36.34-23.443-59.219-23.443-22.877 0-43.7 8.917-59.214 23.44a81 81 0 0 0-11.796-.875c-27.651 0-52.097 13.949-66.696 35.174-36.205 3.705-64.545 34.377-64.545 71.544 0 24.161 11.988 45.561 30.316 58.61C35.157 302.765 0 349.42 0 404.137c0 5.633 4.566 10.199 10.199 10.199h100.972v-.143c.533.086 1.077.143 1.635.143h286.389c.207 0 .41-.018.615-.031v.031h101.991c5.633 0 10.199-4.566 10.199-10.199 0-54.717-35.157-101.372-84.065-118.582m9.918-58.608c0 26.078-19.48 47.679-44.652 51.05a141.7 141.7 0 0 0-21.804-9.259c21.979-14.481 36.524-39.368 36.524-67.599a80.7 80.7 0 0 0-3.142-22.272c19.32 7.434 33.074 26.171 33.074 48.08m-50.33-25.81c0 33.367-27.145 60.512-60.512 60.512a60.1 60.1 0 0 1-23.468-4.751c23.586-15.52 39.198-42.212 39.198-72.497 0-15.904-4.321-30.808-11.823-43.636 31.549 2.023 56.605 28.32 56.605 60.372m-65.182-16.734c0 36.58-29.76 66.341-66.341 66.341s-66.341-29.76-66.341-66.341 29.76-66.341 66.341-66.341 66.341 29.76 66.341 66.341m-141.257-43.637c-7.502 12.829-11.823 27.734-11.823 43.636 0 30.283 15.611 56.976 39.197 72.496a60.05 60.05 0 0 1-23.467 4.751c-33.367 0-60.512-27.145-60.512-60.512-.002-32.052 25.054-58.349 56.605-60.371M74.147 226.947c0-21.912 13.753-40.662 33.078-48.094a80.6 80.6 0 0 0-3.146 22.286c0 28.232 14.545 53.118 36.524 67.599a142 142 0 0 0-21.804 9.259c-25.171-3.371-44.652-24.972-44.652-51.05m3.612 83.474c-19.842 22.67-32.624 51.661-34.888 83.517H20.888c3.521-36.454 25.715-67.526 56.871-83.517m25.195 83.517H63.322c4.501-54.16 44.511-98.39 96.621-109.299-32.455 26.141-54.079 65.202-56.989 109.299m20.438 0C128.62 325.355 186.099 271.143 256 271.143s127.38 54.212 132.608 122.795zm285.654 0c-2.91-44.097-24.534-83.158-56.989-109.299 52.11 10.909 92.12 55.139 96.621 109.299zm60.084 0c-2.263-31.846-15.039-60.828-34.869-83.495 31.143 15.994 53.332 47.05 56.85 83.495z"/>
    <path d="M193.656 297.106c-27.942 16.693-48.311 44.341-55.883 75.855-1.317 5.477 2.057 10.984 7.534 12.3.801.193 1.602.285 2.392.285 4.607 0 8.785-3.143 9.909-7.819 6.298-26.211 23.251-49.213 46.511-63.109 4.835-2.889 6.414-9.151 3.526-13.986-2.891-4.838-9.154-6.414-13.989-3.526m62.201-17.119c-9.507 0-18.975 1.104-28.143 3.28-5.481 1.3-8.869 6.799-7.568 12.279 1.113 4.689 5.296 7.846 9.915 7.846.78 0 1.573-.09 2.364-.278a101.6 101.6 0 0 1 23.432-2.728c5.633 0 10.199-4.566 10.199-10.199 0-5.634-4.566-10.2-10.199-10.2"/>
</svg>