<svg xmlns="http://www.w3.org/2000/svg" viewBox="0 0 423.724 423.724" xml:space="preserve">
	<path style="fill:#ef7954" d="M380.176 224.312h-8.135v-11.756h8.135c17.53 0 31.792-14.262 31.792-31.792s-14.262-31.792-31.792-31.792H254.341c-18.267 0-33.129-14.862-33.129-33.129s14.862-33.129 33.129-33.129h9.617c12.669 0 22.976-10.307 22.976-22.976h11.756c0 19.151-15.581 34.732-34.732 34.732h-9.617c-11.785 0-21.373 9.588-21.373 21.373s9.588 21.373 21.373 21.373h125.835c24.013 0 43.548 19.536 43.548 43.548s-19.535 43.548-43.548 43.548"/>
	<path style="fill:#b3b3b3" d="M301.299 239.273h28.561v48.815h-28.561z"/>
	<path style="fill:#999" d="M301.299 267.064h14.174v45.947h-14.174z"/>
	<path style="fill:#ccc" d="M355.13 313.01c0 4.072-1.208 7.919-3.612 11.318-3.773 5.365-10.516 9.597-20.135 11.841a64 64 0 0 1-6.615 1.165c-3.163.395-6.573.598-10.228.598a24.8 24.8 0 0 1-15.796-5.643c-5.568-4.574-9.116-11.51-9.116-19.28 0-.192 0-.385.011-.566.011-.705.053-1.411.128-2.095 1.336-12.515 11.905-22.261 24.773-22.261 3.762 0 7.235.192 10.431.556 3.537.395 6.744 1.015 9.608 1.806 13.744 3.815 20.006 11.852 20.519 21.278q.032.642.032 1.283"/>
	<path style="fill:#999" d="m243.522 345.958 68.883-50.047 68.883 50.047-6.097 73.582-38.168-6.614 19.103-58.793-43.721-31.765-43.722 31.765 16.559 65.407H267.43z"/>
	<path style="fill:#ccc" d="m261.333 345.958 68.883-50.047 68.883 50.047-23.908 73.582-20.356-6.614 19.103-58.793-43.722-31.765-43.721 31.765 19.103 58.793-20.356 6.614z"/>
	<path style="fill:gray" d="M88.279 267.064h168.086c24.852 0 44.998-20.146 44.998-44.998v-6.184c0-24.852-20.146-44.998-44.998-44.998H88.279c-24.852 0-44.998 20.146-44.998 44.998v6.184c0 24.851 20.146 44.998 44.998 44.998"/>
	<path style="fill:#999" d="M170.713 267.064h168.086c24.852 0 44.998-20.146 44.998-44.998v-6.184c0-24.852-20.146-44.998-44.998-44.998H170.713c-24.852 0-44.998 20.146-44.998 44.998v6.184c0 24.851 20.146 44.998 44.998 44.998"/>
	<path style="fill:#ccc" d="M173.804 239.277c-11.194 0-20.302-9.108-20.302-20.303s9.108-20.303 20.302-20.303h161.903c11.194 0 20.302 9.108 20.302 20.303s-9.108 20.303-20.302 20.303zM72.135 25.274h286.122v34.464H72.135z"/>
	<path style="fill:#b3b3b3" d="M0 25.274h72.135v34.464H0z"/>
	<path style="fill:#999" d="M30.727 59.738h107.131v166.711H30.727z"/>
	<path style="fill:#b3b3b3" d="M209.992 4.184h-72.135v222.265h45.602c14.654 0 26.533-11.879 26.533-26.533z"/>
	<path style="fill:#74a3af" d="M156.03 312.477h-37.949c-25.041 0-45.413-20.372-45.413-45.413v-40.615h11.756v40.615c0 18.559 15.099 33.657 33.657 33.657h37.949c18.558 0 33.657-15.098 33.657-33.657h11.756c0 25.041-20.372 45.413-45.413 45.413"/>
	<path style="fill:#999" d="M105.797 4.184h32.06v21.089h-32.06zm-75.07 0h32.06v21.089h-32.06z"/>
	<path style="fill:#b3b3b3" d="M62.786 4.184h32.06v21.089h-32.06z"/>
	<path style="fill:#999" d="M123.892 4.184h13.965v69.281h-13.965z"/>
	<path style="fill:gray" d="M194.427 191.733c0 9.052-7.331 16.394-16.383 16.394-1.475 0-2.918-.192-4.275-.566-6.979-1.881-12.119-8.261-12.119-15.828 0-7.566 5.14-13.936 12.119-15.817 1.357-.374 2.8-.566 4.275-.566 9.052-.001 16.383 7.331 16.383 16.383"/>
	<path style="fill:#999" d="M185.878 191.733c0 7.567-5.13 13.947-12.109 15.828-6.979-1.881-12.119-8.261-12.119-15.828 0-7.566 5.14-13.936 12.119-15.817 6.979 1.881 12.109 8.25 12.109 15.817"/>
	<path style="fill:gray" d="M45.818 74.178h76.947v123.971H45.818z"/>
	<path style="fill:#b3b3b3" d="M45.818 74.178h18.938v123.971H45.818z"/>
	<path style="fill:#ef7954" d="M64.757 91.633h58.009v10.687H64.757zm0 66.973h58.009v10.687H64.757z"/>
	<path style="fill:#74a3af" d="M85.062 198.148H74.375v-49.873c0-11.589 9.428-21.018 21.017-21.018 5.696 0 10.331-4.634 10.331-10.331V74.177h10.687v42.749c0 11.589-9.428 21.018-21.018 21.018-5.696 0-10.33 4.634-10.33 10.331z"/>
	<path style="fill:#ccc" d="m336.577 288.911-1.998 1.539-14.406 11.104-14.876 11.457H289.63l.032-.577.107-2.084c1.336-12.515 11.905-22.261 24.773-22.261h15.678a25 25 0 0 1 6.357.822"/>
	<path style="fill:gray" d="M355.13 313.01c0 4.264-1.069 8.283-2.96 11.799-3.708 6.893-10.57 11.841-18.66 12.899-1.069.15-2.17.224-3.292.224-1.87 0-3.698-.203-5.451-.598-6.989-1.56-12.867-6.049-16.277-12.119a24.7 24.7 0 0 1-3.195-12.205 24.82 24.82 0 0 1 6.199-16.437 24.87 24.87 0 0 1 18.723-8.486c2.201 0 4.328.289 6.359.823 10.281 2.704 17.965 11.82 18.521 22.817q.033.642.033 1.283"/>
	<path style="fill:#ccc" d="M340.264 313.01c0 5.547-4.499 10.046-10.046 10.046a9.84 9.84 0 0 1-4.478-1.058c-3.302-1.646-5.568-5.055-5.568-8.988s2.266-7.342 5.568-8.988a9.84 9.84 0 0 1 4.478-1.058c5.547.001 10.046 4.5 10.046 10.046"/>
	<path style="fill:#999" d="M331.298 313.01a10.05 10.05 0 0 1-5.557 8.988c-3.302-1.646-5.568-5.055-5.568-8.988s2.266-7.342 5.568-8.988a10.05 10.05 0 0 1 5.557 8.988"/>
</svg>